<?xml version="1.0" encoding="UTF-8"?>
<!DOCTYPE svg PUBLIC "-//W3C//DTD SVG 1.1//EN" "http://www.w3.org/Graphics/SVG/1.1/DTD/svg11.dtd">
<svg xmlns="http://www.w3.org/2000/svg" version="1.1" width="264px" height="266px" style="shape-rendering:geometricPrecision; text-rendering:geometricPrecision; image-rendering:optimizeQuality; fill-rule:evenodd; clip-rule:evenodd" xmlns:xlink="http://www.w3.org/1999/xlink">
<g><path style="opacity:1" fill="#1c191a" d="M -0.5,-0.5 C 34.8333,-0.5 70.1667,-0.5 105.5,-0.5C 87.8441,2.76397 71.8441,9.5973 57.5,20C 46.2186,25.6164 36.3853,33.1164 28,42.5C 22.9791,48.5284 18.3124,54.8617 14,61.5C 13.3387,64.9457 12.5054,68.2791 11.5,71.5C 9.90281,72.0905 8.56948,73.0905 7.5,74.5C 5.06945,82.3371 2.40279,90.0038 -0.5,97.5C -0.5,64.8333 -0.5,32.1667 -0.5,-0.5 Z"/></g>
<g><path style="opacity:1" fill="#1c191a" d="M 144.5,-0.5 C 184.167,-0.5 223.833,-0.5 263.5,-0.5C 263.5,88.1667 263.5,176.833 263.5,265.5C 175.5,265.5 87.5,265.5 -0.5,265.5C -0.5,231.833 -0.5,198.167 -0.5,164.5C 0.538436,167.345 1.87177,170.012 3.5,172.5C 5.31987,181.782 8.81987,190.448 14,198.5C 21.4715,213.491 31.9715,226.324 45.5,237C 46.7932,237.49 48.1266,237.657 49.5,237.5C 50.1667,237.5 50.8333,237.5 51.5,237.5C 52.6138,238.885 53.6138,240.385 54.5,242C 81.3402,260.875 111.34,268.209 144.5,264C 167.632,260.93 188.632,252.597 207.5,239C 216.633,229.867 225.799,220.701 235,211.5C 240.284,203.931 244.784,195.931 248.5,187.5C 259.441,164.51 263.274,140.176 260,114.5C 255.6,81.8537 241.433,54.6871 217.5,33C 214.536,30.1903 211.202,28.0236 207.5,26.5C 206.127,26.6567 204.793,26.49 203.5,26C 201.365,25.1237 200.031,23.6237 199.5,21.5C 194.298,15.88 187.964,11.7133 180.5,9C 170.661,4.32893 160.328,1.82893 149.5,1.5C 149.167,1.5 148.833,1.5 148.5,1.5C 147.167,0.833333 145.833,0.166667 144.5,-0.5 Z"/></g>
<g><path style="opacity:1" fill="#20494b" d="M 148.5,1.5 C 148.833,1.5 149.167,1.5 149.5,1.5C 151.629,2.20278 153.629,3.20278 155.5,4.5C 138.904,2.50164 122.238,2.00164 105.5,3C 91.1755,5.30764 78.1755,10.4743 66.5,18.5C 64.7839,18.6287 63.1172,18.962 61.5,19.5C 62.5736,18.1154 63.9069,16.9487 65.5,16C 91.2842,1.25702 118.951,-3.57631 148.5,1.5 Z"/></g>
<g><path style="opacity:1" fill="#1f4446" d="M 157.5,4.5 C 165.15,5.07915 172.483,6.91249 179.5,10C 181.684,11.3634 183.684,12.8634 185.5,14.5C 175.946,11.5694 166.613,8.23607 157.5,4.5 Z"/></g>
<g><path style="opacity:1" fill="#4af5fd" d="M 251.5,166.5 C 240.946,198.957 221.279,224.29 192.5,242.5C 181.516,248.157 170.183,252.824 158.5,256.5C 97.9285,267.279 50.7619,247.279 17,196.5C 6.98698,178.638 1.15364,159.638 -0.5,139.5C -0.5,133.833 -0.5,128.167 -0.5,122.5C 4.85303,76.8284 27.1864,42.1617 66.5,18.5C 117.135,-5.03659 164.802,-0.203252 209.5,33C 249.461,69.0607 263.461,113.561 251.5,166.5 Z"/></g>
<g><path style="opacity:1" fill="#fafcfe" d="M 119.5,5.5 C 170.56,4.80908 209.727,25.8091 237,68.5C 258.249,109.151 258.916,150.151 239,191.5C 205.073,245.867 156.573,266.367 93.5,253C 39.6059,235.1 9.10594,197.933 2,141.5C 0.214114,90.2331 20.7141,50.7331 63.5,23C 81.0685,13.1967 99.7351,7.36337 119.5,5.5 Z"/></g>
<g><path style="opacity:1" fill="#2d7f82" d="M 155.5,4.5 C 156.167,4.5 156.833,4.5 157.5,4.5C 166.613,8.23607 175.946,11.5694 185.5,14.5C 189.628,17.8976 194.295,20.2309 199.5,21.5C 200.031,23.6237 201.365,25.1237 203.5,26C 204.793,26.49 206.127,26.6567 207.5,26.5C 213.439,32.6111 219.272,38.9444 225,45.5C 231.333,53.8333 237.667,62.1667 244,70.5C 246.495,74.9866 247.995,79.8199 248.5,85C 249.371,86.3638 250.371,87.5305 251.5,88.5C 254.339,102.374 256.339,116.374 257.5,130.5C 257.261,141.986 255.928,153.319 253.5,164.5C 253.5,164.833 253.5,165.167 253.5,165.5C 252.833,165.833 252.167,166.167 251.5,166.5C 263.461,113.561 249.461,69.0607 209.5,33C 164.802,-0.203252 117.135,-5.03659 66.5,18.5C 78.1755,10.4743 91.1755,5.30764 105.5,3C 122.238,2.00164 138.904,2.50164 155.5,4.5 Z"/></g>
<g><path style="opacity:1" fill="#1d2d2e" d="M 149.5,1.5 C 160.328,1.82893 170.661,4.32893 180.5,9C 187.964,11.7133 194.298,15.88 199.5,21.5C 194.295,20.2309 189.628,17.8976 185.5,14.5C 183.684,12.8634 181.684,11.3634 179.5,10C 172.483,6.91249 165.15,5.07915 157.5,4.5C 156.833,4.5 156.167,4.5 155.5,4.5C 153.629,3.20278 151.629,2.20278 149.5,1.5 Z"/></g>
<g><path style="opacity:1" fill="#204b4d" d="M 61.5,19.5 C 55.9854,24.2946 49.9854,28.4613 43.5,32C 38.3544,37.931 32.6877,43.431 26.5,48.5C 35.4659,35.5306 47.1326,25.8639 61.5,19.5 Z"/></g>
<g><path style="opacity:1" fill="#1c2d2e" d="M 105.5,-0.5 C 118.5,-0.5 131.5,-0.5 144.5,-0.5C 145.833,0.166667 147.167,0.833333 148.5,1.5C 118.951,-3.57631 91.2842,1.25702 65.5,16C 63.9069,16.9487 62.5736,18.1154 61.5,19.5C 47.1326,25.8639 35.4659,35.5306 26.5,48.5C 21.2389,56.0292 16.2389,63.6959 11.5,71.5C 12.5054,68.2791 13.3387,64.9457 14,61.5C 18.3124,54.8617 22.9791,48.5284 28,42.5C 36.3853,33.1164 46.2186,25.6164 57.5,20C 71.8441,9.5973 87.8441,2.76397 105.5,-0.5 Z"/></g>
<g><path style="opacity:1" fill="#1d2f30" d="M 207.5,26.5 C 211.202,28.0236 214.536,30.1903 217.5,33C 241.433,54.6871 255.6,81.8537 260,114.5C 263.274,140.176 259.441,164.51 248.5,187.5C 250.595,180.266 252.261,172.933 253.5,165.5C 253.5,165.167 253.5,164.833 253.5,164.5C 255.268,161.394 256.768,158.061 258,154.5C 261.258,132.416 259.591,110.749 253,89.5C 252.617,88.944 252.117,88.6107 251.5,88.5C 250.371,87.5305 249.371,86.3638 248.5,85C 247.995,79.8199 246.495,74.9866 244,70.5C 237.667,62.1667 231.333,53.8333 225,45.5C 219.272,38.9444 213.439,32.6111 207.5,26.5 Z"/></g>
<g><path style="opacity:1" fill="#2c7b7e" d="M 66.5,18.5 C 27.1864,42.1617 4.85303,76.8284 -0.5,122.5C -0.5,115.5 -0.5,108.5 -0.5,101.5C 3.53983,91.4792 7.53983,81.4792 11.5,71.5C 16.2389,63.6959 21.2389,56.0292 26.5,48.5C 32.6877,43.431 38.3544,37.931 43.5,32C 49.9854,28.4613 55.9854,24.2946 61.5,19.5C 63.1172,18.962 64.7839,18.6287 66.5,18.5 Z"/></g>
<g><path style="opacity:1" fill="#1e4041" d="M 11.5,71.5 C 7.53983,81.4792 3.53983,91.4792 -0.5,101.5C -0.5,100.167 -0.5,98.8333 -0.5,97.5C 2.40279,90.0038 5.06945,82.3371 7.5,74.5C 8.56948,73.0905 9.90281,72.0905 11.5,71.5 Z"/></g>
<g><path style="opacity:1" fill="#1f4647" d="M 251.5,88.5 C 252.117,88.6107 252.617,88.944 253,89.5C 259.591,110.749 261.258,132.416 258,154.5C 256.768,158.061 255.268,161.394 253.5,164.5C 255.928,153.319 257.261,141.986 257.5,130.5C 256.339,116.374 254.339,102.374 251.5,88.5 Z"/></g>
<g><path style="opacity:1" fill="#1f4749" d="M -0.5,156.5 C 1.46196,161.542 2.7953,166.875 3.5,172.5C 1.87177,170.012 0.538436,167.345 -0.5,164.5C -0.5,161.833 -0.5,159.167 -0.5,156.5 Z"/></g>
<g><path style="opacity:1" fill="#20484a" d="M 253.5,165.5 C 252.261,172.933 250.595,180.266 248.5,187.5C 247.609,188.11 246.609,188.443 245.5,188.5C 248.375,181.482 250.375,174.149 251.5,166.5C 252.167,166.167 252.833,165.833 253.5,165.5 Z"/></g>
<g><path style="opacity:1" fill="#4bf5fd" d="M 115.5,13.5 C 177.142,11.5508 218.975,39.2175 241,96.5C 253.852,146.27 241.352,188.437 203.5,223C 164.651,252.249 122.651,257.582 77.5,239C 38.7062,219.282 16.2062,187.782 10,144.5C 6.83325,94.3317 26.3332,55.8317 68.5,29C 83.3335,20.8883 99.0002,15.7217 115.5,13.5 Z"/></g>
<g><path style="opacity:1" fill="#204547" d="M 21.5,171.5 C 24.3209,177.54 27.4875,183.54 31,189.5C 32.9461,192.42 35.1128,195.087 37.5,197.5C 39.8903,199.734 41.7237,202.401 43,205.5C 48.0365,210.369 52.8698,215.369 57.5,220.5C 49.5103,214.01 42.0103,207.01 35,199.5C 30.147,192.459 25.8136,185.125 22,177.5C 21.5045,175.527 21.3379,173.527 21.5,171.5 Z"/></g>
<g><path style="opacity:1" fill="#1b2727" d="M 234.5,99.5 C 236.868,104.453 238.368,109.786 239,115.5C 241.224,136.87 238.724,157.537 231.5,177.5C 231.5,177.833 231.5,178.167 231.5,178.5C 230.167,179.5 228.833,180.5 227.5,181.5C 239.305,155.005 241.639,127.672 234.5,99.5 Z"/></g>
<g><path style="opacity:1" fill="#245f61" d="M 240.5,112.5 C 242.04,118.251 242.706,124.251 242.5,130.5C 242.333,134.833 242.167,139.167 242,143.5C 241.79,145.058 241.29,146.391 240.5,147.5C 241.796,135.835 241.796,124.168 240.5,112.5 Z"/></g>
<g><path style="opacity:1" fill="#1e3e3f" d="M 188.5,35.5 C 192.414,36.24 195.747,38.0734 198.5,41C 205.89,49.0652 213.39,57.2319 221,65.5C 229.432,77.6745 235.932,90.6745 240.5,104.5C 240.5,107.167 240.5,109.833 240.5,112.5C 241.796,124.168 241.796,135.835 240.5,147.5C 238.506,157.154 236.506,166.821 234.5,176.5C 233.391,176.557 232.391,176.89 231.5,177.5C 238.724,157.537 241.224,136.87 239,115.5C 238.368,109.786 236.868,104.453 234.5,99.5C 232.396,86.9549 226.896,76.2883 218,67.5C 216.065,64.6293 214.399,61.6293 213,58.5C 203.903,51.5622 195.737,43.8956 188.5,35.5 Z"/></g>
<g><path style="opacity:1" fill="#204d4f" d="M 21.5,92.5 C 17.9466,105.246 15.6132,118.246 14.5,131.5C 14.6667,135.833 14.8333,140.167 15,144.5C 16.6786,151.086 17.8453,157.752 18.5,164.5C 16.7952,159 15.2952,153.333 14,147.5C 13.3333,136.5 13.3333,125.5 14,114.5C 15.6362,106.755 18.1362,99.4221 21.5,92.5 Z"/></g>
<g><path style="opacity:1" fill="#1c2e2f" d="M 93.5,24.5 C 79.2066,31.3111 65.5399,39.1445 52.5,48C 50,50.5 47.5,53 45,55.5C 40.0238,63.4658 34.6904,71.1325 29,78.5C 10.258,119.739 13.0913,159.406 37.5,197.5C 35.1128,195.087 32.9461,192.42 31,189.5C 27.4875,183.54 24.3209,177.54 21.5,171.5C 19.1824,169.815 18.1824,167.481 18.5,164.5C 17.8453,157.752 16.6786,151.086 15,144.5C 14.8333,140.167 14.6667,135.833 14.5,131.5C 15.6132,118.246 17.9466,105.246 21.5,92.5C 22.1911,85.7964 24.5245,79.7964 28.5,74.5C 36.8747,62.619 46.5414,51.7857 57.5,42C 64.0423,38.2393 70.5423,34.406 77,30.5C 82.2085,27.5981 87.7085,25.5981 93.5,24.5 Z"/></g>
<g><path style="opacity:1" fill="#30888c" d="M 240.5,104.5 C 245.643,122.306 245.809,140.306 241,158.5C 239.893,164.997 237.726,170.997 234.5,176.5C 236.506,166.821 238.506,157.154 240.5,147.5C 241.29,146.391 241.79,145.058 242,143.5C 242.167,139.167 242.333,134.833 242.5,130.5C 242.706,124.251 242.04,118.251 240.5,112.5C 240.5,109.833 240.5,107.167 240.5,104.5 Z"/></g>
<g><path style="opacity:1" fill="#2c7c80" d="M 178.5,27.5 C 202.763,39.2623 220.929,57.2623 233,81.5C 236.408,88.8898 238.908,96.5565 240.5,104.5C 235.932,90.6745 229.432,77.6745 221,65.5C 213.39,57.2319 205.89,49.0652 198.5,41C 195.747,38.0734 192.414,36.24 188.5,35.5C 185.499,32.5074 182.165,29.8407 178.5,27.5 Z"/></g>
<g><path style="opacity:1" fill="#225659" d="M 103.5,20.5 C 101.739,21.3127 100.072,22.3127 98.5,23.5C 96.7839,23.6287 95.1172,23.962 93.5,24.5C 87.7085,25.5981 82.2085,27.5981 77,30.5C 70.5423,34.406 64.0423,38.2393 57.5,42C 46.5414,51.7857 36.8747,62.619 28.5,74.5C 45.1284,45.0065 70.1284,27.0065 103.5,20.5 Z"/></g>
<g><path style="opacity:1" fill="#2e8184" d="M 139.5,16.5 C 132.159,16.3337 124.826,16.5003 117.5,17C 112.484,17.254 107.817,18.4206 103.5,20.5C 70.1284,27.0065 45.1284,45.0065 28.5,74.5C 24.5245,79.7964 22.1911,85.7964 21.5,92.5C 18.1362,99.4221 15.6362,106.755 14,114.5C 13.3333,125.5 13.3333,136.5 14,147.5C 15.2952,153.333 16.7952,159 18.5,164.5C 18.1824,167.481 19.1824,169.815 21.5,171.5C 21.3379,173.527 21.5045,175.527 22,177.5C 25.8136,185.125 30.147,192.459 35,199.5C 42.0103,207.01 49.5103,214.01 57.5,220.5C 63.8899,226.874 71.2232,232.041 79.5,236C 87.0057,237.724 94.3391,240.057 101.5,243C 106.793,243.977 112.126,244.477 117.5,244.5C 127.987,245.494 138.654,245.828 149.5,245.5C 96.9254,253.362 56.0921,235.029 27,190.5C 6.69858,152.019 6.36524,113.352 26,74.5C 52.0892,32.2053 89.9225,12.872 139.5,16.5 Z"/></g>
<g><path style="opacity:1" fill="#214c4e" d="M 156.5,21.5 C 158.527,21.3379 160.527,21.5045 162.5,22C 167.756,24.1407 173.09,25.9741 178.5,27.5C 182.165,29.8407 185.499,32.5074 188.5,35.5C 185.064,34.808 181.73,33.808 178.5,32.5C 174.145,29.752 169.645,27.0853 165,24.5C 162.02,23.5644 159.186,22.5644 156.5,21.5 Z"/></g>
<g><path style="opacity:1" fill="#1c2d2e" d="M 156.5,21.5 C 159.186,22.5644 162.02,23.5644 165,24.5C 169.645,27.0853 174.145,29.752 178.5,32.5C 152.764,21.0109 126.098,18.0109 98.5,23.5C 100.072,22.3127 101.739,21.3127 103.5,20.5C 121.254,17.5531 138.921,17.8864 156.5,21.5 Z"/></g>
<g><path style="opacity:1" fill="#30898c" d="M 140.5,16.5 C 154.074,17.3616 166.74,21.0283 178.5,27.5C 173.09,25.9741 167.756,24.1407 162.5,22C 160.527,21.5045 158.527,21.3379 156.5,21.5C 151.289,19.4106 145.956,17.7439 140.5,16.5 Z"/></g>
<g><path style="opacity:1" fill="#1d1a1b" d="M 178.5,32.5 C 181.73,33.808 185.064,34.808 188.5,35.5C 195.737,43.8956 203.903,51.5622 213,58.5C 214.399,61.6293 216.065,64.6293 218,67.5C 226.896,76.2883 232.396,86.9549 234.5,99.5C 241.639,127.672 239.305,155.005 227.5,181.5C 221.181,196.327 211.848,208.827 199.5,219C 194.833,222 190.167,225 185.5,228C 183.35,229.411 181.016,230.245 178.5,230.5C 149.232,244.287 119.232,245.954 88.5,235.5C 78.0076,233.522 69.0076,228.688 61.5,221C 60.2068,220.51 58.8734,220.343 57.5,220.5C 52.8698,215.369 48.0365,210.369 43,205.5C 41.7237,202.401 39.8903,199.734 37.5,197.5C 13.0913,159.406 10.258,119.739 29,78.5C 34.6904,71.1325 40.0238,63.4658 45,55.5C 47.5,53 50,50.5 52.5,48C 65.5399,39.1445 79.2066,31.3111 93.5,24.5C 95.1172,23.962 96.7839,23.6287 98.5,23.5C 126.098,18.0109 152.764,21.0109 178.5,32.5 Z"/></g>
<g><path style="opacity:1" fill="#74c3d9" d="M 125.5,134.5 C 122.941,145.568 117.941,155.234 110.5,163.5C 110.343,162.127 110.51,160.793 111,159.5C 115.565,153.036 119.065,146.036 121.5,138.5C 122.5,136.833 123.833,135.5 125.5,134.5 Z"/></g>
<g><path style="opacity:1" fill="#eaefee" d="M 49.5,132.5 C 54.7403,131.538 58.9069,133.205 62,137.5C 63.6172,143.086 64.7838,148.753 65.5,154.5C 63.5,154.833 61.5,155.167 59.5,155.5C 59.719,154.325 59.3857,153.325 58.5,152.5C 52.866,153.992 47.1993,155.325 41.5,156.5C 41.2993,160.35 39.4659,161.35 36,159.5C 33.9466,153.298 33.2799,146.965 34,140.5C 36.8083,135.713 40.8083,134.379 46,136.5C 47.3756,135.295 48.5423,133.962 49.5,132.5 Z"/></g>
<g><path style="opacity:1" fill="#201d1e" d="M 40.5,142.5 C 44.9083,142.062 46.5749,144.062 45.5,148.5C 43.5,148.833 41.5,149.167 39.5,149.5C 39.298,147.05 39.6314,144.717 40.5,142.5 Z"/></g>
<g><path style="opacity:1" fill="#232021" d="M 51.5,139.5 C 56.8946,138.555 58.5613,140.555 56.5,145.5C 54.9291,146.309 53.2624,146.643 51.5,146.5C 50.5615,144.09 50.5615,141.756 51.5,139.5 Z"/></g>
<g><path style="opacity:1" fill="#78c9d8" d="M 133.5,125.5 C 131.306,133.543 128.306,141.21 124.5,148.5C 126.703,140.442 129.703,132.775 133.5,125.5 Z"/></g>
<g><path style="opacity:1" fill="#999a9a" d="M 199.5,118.5 C 202.704,119.989 206.037,120.989 209.5,121.5C 206.167,121.5 202.833,121.5 199.5,121.5C 199.5,120.5 199.5,119.5 199.5,118.5 Z"/></g>
<g><path style="opacity:1" fill="#c8efeb" d="M 138.5,111.5 C 136.826,116.177 135.16,120.844 133.5,125.5C 129.703,132.775 126.703,140.442 124.5,148.5C 121.944,153.269 119.11,157.936 116,162.5C 114.261,164.741 112.094,166.408 109.5,167.5C 108.702,167.043 108.369,166.376 108.5,165.5C 108.833,164.5 109.5,163.833 110.5,163.5C 117.941,155.234 122.941,145.568 125.5,134.5C 126.546,130.076 127.879,125.743 129.5,121.5C 129.5,121.167 129.5,120.833 129.5,120.5C 130.469,118.337 131.302,116.004 132,113.5C 133,112.833 134,112.167 135,111.5C 136.145,112.684 137.312,112.684 138.5,111.5 Z"/></g>
<g><path style="opacity:1" fill="#eef2f2" d="M 194.5,118.5 C 196.167,118.5 197.833,118.5 199.5,118.5C 199.5,119.5 199.5,120.5 199.5,121.5C 202.833,121.5 206.167,121.5 209.5,121.5C 214.266,121.402 218.933,120.736 223.5,119.5C 223.82,122.898 223.487,126.232 222.5,129.5C 216.965,132.767 211.298,135.767 205.5,138.5C 204.711,138.783 204.044,139.283 203.5,140C 206.482,140.498 209.482,140.665 212.5,140.5C 215.833,139.833 219.167,139.167 222.5,138.5C 222.5,142.167 222.5,145.833 222.5,149.5C 220.5,149.5 218.5,149.5 216.5,149.5C 216.5,148.5 216.5,147.5 216.5,146.5C 208.777,146.8 201.11,146.467 193.5,145.5C 192.167,143.167 192.167,140.833 193.5,138.5C 199.865,134.986 206.198,131.486 212.5,128C 210.333,127.833 208.167,127.667 206,127.5C 201.799,128.12 197.632,128.787 193.5,129.5C 193.323,125.766 193.656,122.099 194.5,118.5 Z"/></g>
<g><path style="opacity:1" fill="#7c7d7d" d="M 205.5,138.5 C 207.833,139.167 210.167,139.833 212.5,140.5C 209.482,140.665 206.482,140.498 203.5,140C 204.044,139.283 204.711,138.783 205.5,138.5 Z"/></g>
<g><path style="opacity:1" fill="#8d8e8e" d="M 192.5,115.5 C 193.391,116.11 194.391,116.443 195.5,116.5C 196.833,117.167 198.167,117.833 199.5,118.5C 197.833,118.5 196.167,118.5 194.5,118.5C 193.449,117.778 192.782,116.778 192.5,115.5 Z"/></g>
<g><path style="opacity:1" fill="#81868a" d="M 80.5,105.5 C 82.5217,107.038 82.8551,108.872 81.5,111C 82.4138,112.406 83.0805,113.906 83.5,115.5C 83.5,115.833 83.5,116.167 83.5,116.5C 80.2188,113.341 79.2188,109.674 80.5,105.5 Z"/></g>
<g><path style="opacity:1" fill="#7e7f80" d="M 142.5,108.5 C 139.38,113.077 137.046,118.077 135.5,123.5C 135.167,124.5 134.5,125.167 133.5,125.5C 135.16,120.844 136.826,116.177 138.5,111.5C 139.833,110.5 141.167,109.5 142.5,108.5 Z"/></g>
<g><path style="opacity:1" fill="#b6e3ee" d="M 83.5,102.5 C 84.9989,103.494 86.6656,103.494 88.5,102.5C 88.5675,106.733 87.5675,110.899 85.5,115C 85.8333,115.333 86.1667,115.667 86.5,116C 85.4232,116.47 84.4232,116.303 83.5,115.5C 83.0805,113.906 82.4138,112.406 81.5,111C 82.8551,108.872 82.5217,107.038 80.5,105.5C 81.2719,104.306 82.2719,103.306 83.5,102.5 Z"/></g>
<g><path style="opacity:1" fill="#7cc3d6" d="M 104.5,99.5 C 114.63,100.267 124.797,100.934 135,101.5C 137.225,101.435 139.392,101.102 141.5,100.5C 142.614,101.723 142.781,103.056 142,104.5C 140.984,103.366 140.317,103.699 140,105.5C 139.692,104.692 139.192,104.025 138.5,103.5C 137.618,104.76 136.618,105.926 135.5,107C 137.167,107.333 138.833,107.667 140.5,108C 139.672,108.915 138.672,109.581 137.5,110C 138.056,110.383 138.389,110.883 138.5,111.5C 137.312,112.684 136.145,112.684 135,111.5C 134,112.167 133,112.833 132,113.5C 131.302,116.004 130.469,118.337 129.5,120.5C 128.903,120.265 128.57,119.765 128.5,119C 130.174,113.31 132.841,108.31 136.5,104C 133.518,103.502 130.518,103.335 127.5,103.5C 122.695,102.513 117.695,102.179 112.5,102.5C 105.199,102.575 98.1989,104.075 91.5,107C 86.4242,110.917 86.2576,114.084 91,116.5C 91.49,117.793 91.6567,119.127 91.5,120.5C 88.3855,120.606 85.7188,119.606 83.5,117.5C 83.5,117.167 83.5,116.833 83.5,116.5C 83.5,116.167 83.5,115.833 83.5,115.5C 84.4232,116.303 85.4232,116.47 86.5,116C 86.1667,115.667 85.8333,115.333 85.5,115C 87.5675,110.899 88.5675,106.733 88.5,102.5C 93.5303,100.05 98.8637,99.05 104.5,99.5 Z"/></g>
<g><path style="opacity:1" fill="#1e1e1f" d="M 161.5,104.5 C 159.11,111.91 154.11,114.743 146.5,113C 142.964,116.704 139.298,120.204 135.5,123.5C 137.046,118.077 139.38,113.077 142.5,108.5C 144.239,106.119 146.572,104.452 149.5,103.5C 153.453,104.362 157.453,104.695 161.5,104.5 Z"/></g>
<g><path style="opacity:1" fill="#858686" d="M 190.5,103.5 C 191.5,103.5 192.5,103.5 193.5,103.5C 194.492,103.328 195.158,103.662 195.5,104.5C 193.302,104.12 191.635,104.787 190.5,106.5C 189.375,105.652 189.375,104.652 190.5,103.5 Z"/></g>
<g><path style="opacity:1" fill="#07a3c1" d="M 127.5,103.5 C 130.518,103.335 133.518,103.502 136.5,104C 132.841,108.31 130.174,113.31 128.5,119C 128.57,119.765 128.903,120.265 129.5,120.5C 129.5,120.833 129.5,121.167 129.5,121.5C 114.201,136.298 99.0348,151.298 84,166.5C 83.1681,157.814 83.3348,149.147 84.5,140.5C 94.8604,129.473 105.527,118.806 116.5,108.5C 121.806,110.346 125.473,108.679 127.5,103.5 Z"/></g>
<g><path style="opacity:1" fill="#0ba5c3" d="M 112.5,102.5 C 112.649,103.552 112.483,104.552 112,105.5C 102.667,114.833 93.3333,124.167 84,133.5C 83.5006,128.177 83.334,122.844 83.5,117.5C 85.7188,119.606 88.3855,120.606 91.5,120.5C 91.6567,119.127 91.49,117.793 91,116.5C 86.2576,114.084 86.4242,110.917 91.5,107C 98.1989,104.075 105.199,102.575 112.5,102.5 Z"/></g>
<g><path style="opacity:1" fill="#898d8d" d="M 151.5,102.5 C 155.042,102.187 158.375,102.521 161.5,103.5C 161.5,103.833 161.5,104.167 161.5,104.5C 157.453,104.695 153.453,104.362 149.5,103.5C 146.572,104.452 144.239,106.119 142.5,108.5C 142.433,107.041 142.766,105.708 143.5,104.5C 145.913,102.949 148.579,102.283 151.5,102.5 Z"/></g>
<g><path style="opacity:1" fill="#858686" d="M 38.5,103.5 C 37.1667,103.5 35.8333,103.5 34.5,103.5C 34.7373,104.791 34.404,105.791 33.5,106.5C 33.5,105.167 33.5,103.833 33.5,102.5C 35.4147,102.216 37.0813,102.549 38.5,103.5 Z"/></g>
<g><path style="opacity:1" fill="#aadee8" d="M 170.5,94.5 C 172.964,97.5793 172.298,100.413 168.5,103C 166.19,103.497 163.857,103.663 161.5,103.5C 158.375,102.521 155.042,102.187 151.5,102.5C 156.036,101.198 160.703,101.198 165.5,102.5C 167.17,101.151 168.836,99.9848 170.5,99C 169.944,98.6174 169.611,98.1174 169.5,97.5C 171.481,96.8946 171.815,95.8946 170.5,94.5 Z"/></g>
<g><path style="opacity:1" fill="#c0ebf0" d="M 104.5,99.5 C 123.978,99.388 143.645,99.388 163.5,99.5C 157.321,100.167 150.988,100.833 144.5,101.5C 143.873,102.417 143.539,103.417 143.5,104.5C 142.766,105.708 142.433,107.041 142.5,108.5C 141.167,109.5 139.833,110.5 138.5,111.5C 138.389,110.883 138.056,110.383 137.5,110C 138.672,109.581 139.672,108.915 140.5,108C 138.833,107.667 137.167,107.333 135.5,107C 136.618,105.926 137.618,104.76 138.5,103.5C 139.192,104.025 139.692,104.692 140,105.5C 140.317,103.699 140.984,103.366 142,104.5C 142.781,103.056 142.614,101.723 141.5,100.5C 139.392,101.102 137.225,101.435 135,101.5C 124.797,100.934 114.63,100.267 104.5,99.5 Z"/></g>
<g><path style="opacity:1" fill="#6eb7e5" d="M 169.5,97.5 C 169.611,98.1174 169.944,98.6174 170.5,99C 168.836,99.9848 167.17,101.151 165.5,102.5C 160.703,101.198 156.036,101.198 151.5,102.5C 148.579,102.283 145.913,102.949 143.5,104.5C 143.539,103.417 143.873,102.417 144.5,101.5C 150.988,100.833 157.321,100.167 163.5,99.5C 165.703,99.3964 167.703,98.7298 169.5,97.5 Z"/></g>
<g><path style="opacity:1" fill="#eaefee" d="M 195.5,116.5 C 194.391,116.443 193.391,116.11 192.5,115.5C 191.677,112.539 191.01,109.539 190.5,106.5C 191.635,104.787 193.302,104.12 195.5,104.5C 195.47,105.497 195.97,106.164 197,106.5C 202.042,104.614 207.209,103.114 212.5,102C 213.503,98.4952 215.837,96.9952 219.5,97.5C 219.85,100.722 220.517,103.888 221.5,107C 221.739,109.259 220.739,110.426 218.5,110.5C 217.259,109.963 216.092,109.296 215,108.5C 209.48,109.903 203.98,111.236 198.5,112.5C 198.5,113.833 198.5,115.167 198.5,116.5C 197.5,116.5 196.5,116.5 195.5,116.5 Z"/></g>
<g><path style="opacity:1" fill="#e7f2f3" d="M 170.5,94.5 C 171.815,95.8946 171.481,96.8946 169.5,97.5C 167.703,98.7298 165.703,99.3964 163.5,99.5C 143.645,99.388 123.978,99.388 104.5,99.5C 98.8637,99.05 93.5303,100.05 88.5,102.5C 86.6656,103.494 84.9989,103.494 83.5,102.5C 83.5,101.833 83.5,101.167 83.5,100.5C 84.9952,100.011 86.3285,99.3446 87.5,98.5C 91.0399,98.2474 94.3733,97.5808 97.5,96.5C 102.833,96.5 108.167,96.5 113.5,96.5C 117.634,97.4849 121.968,97.8182 126.5,97.5C 132.167,97.5 137.833,97.5 143.5,97.5C 148.5,97.5 153.5,97.5 158.5,97.5C 162.716,97.316 166.716,96.316 170.5,94.5 Z"/></g>
<g><path style="opacity:1" fill="#08a4c2" d="M 84.5,73.5 C 110.144,74.0281 135.81,74.8614 161.5,76C 177.968,83.7963 183.468,96.6296 178,114.5C 177,116.5 176,118.5 175,120.5C 164.5,131 154,141.5 143.5,152C 135.356,150.077 130.356,153.243 128.5,161.5C 130.635,169.564 135.635,172.398 143.5,170C 148.209,166.693 149.542,162.36 147.5,157C 153.833,150.667 160.167,144.333 166.5,138C 168.883,138.446 171.05,139.612 173,141.5C 177.923,147.225 179.757,153.892 178.5,161.5C 178.994,176.859 171.661,186.359 156.5,190C 132.502,190.5 108.502,190.667 84.5,190.5C 84.1667,190.5 83.8333,190.5 83.5,190.5C 83.3341,185.489 83.5007,180.489 84,175.5C 96.3682,162.965 108.868,150.631 121.5,138.5C 119.065,146.036 115.565,153.036 111,159.5C 110.51,160.793 110.343,162.127 110.5,163.5C 109.5,163.833 108.833,164.5 108.5,165.5C 106.896,166.287 106.229,167.62 106.5,169.5C 110.746,168.956 114.246,166.956 117,163.5C 120.571,159.025 123.071,154.025 124.5,148.5C 128.306,141.21 131.306,133.543 133.5,125.5C 134.5,125.167 135.167,124.5 135.5,123.5C 139.298,120.204 142.964,116.704 146.5,113C 154.11,114.743 159.11,111.91 161.5,104.5C 161.5,104.167 161.5,103.833 161.5,103.5C 163.857,103.663 166.19,103.497 168.5,103C 172.298,100.413 172.964,97.5793 170.5,94.5C 166.716,96.316 162.716,97.316 158.5,97.5C 157.028,94.923 154.695,93.5896 151.5,93.5C 148.234,93.7997 145.567,95.1331 143.5,97.5C 137.833,97.5 132.167,97.5 126.5,97.5C 122.586,92.589 118.253,92.2557 113.5,96.5C 108.167,96.5 102.833,96.5 97.5,96.5C 95.4275,93.6484 92.7608,92.9818 89.5,94.5C 88.2949,95.5769 87.6282,96.9102 87.5,98.5C 86.3285,99.3446 84.9952,100.011 83.5,100.5C 83.5,93.1667 83.5,85.8333 83.5,78.5C 83.366,76.7085 83.6993,75.0418 84.5,73.5 Z"/></g>
<g><path style="opacity:1" fill="#76cad9" d="M 124.5,148.5 C 123.071,154.025 120.571,159.025 117,163.5C 114.246,166.956 110.746,168.956 106.5,169.5C 106.229,167.62 106.896,166.287 108.5,165.5C 108.369,166.376 108.702,167.043 109.5,167.5C 112.094,166.408 114.261,164.741 116,162.5C 119.11,157.936 121.944,153.269 124.5,148.5 Z"/></g>
<g><path style="opacity:1" fill="#07a1bf" d="M 135.5,157.5 C 142.285,156.626 144.285,159.126 141.5,165C 135.281,165.944 133.281,163.444 135.5,157.5 Z"/></g>
<g><path style="opacity:1" fill="#212021" d="M 158.5,97.5 C 153.5,97.5 148.5,97.5 143.5,97.5C 145.567,95.1331 148.234,93.7997 151.5,93.5C 154.695,93.5896 157.028,94.923 158.5,97.5 Z"/></g>
<g><path style="opacity:1" fill="#252324" d="M 126.5,97.5 C 121.968,97.8182 117.634,97.4849 113.5,96.5C 118.253,92.2557 122.586,92.589 126.5,97.5 Z"/></g>
<g><path style="opacity:1" fill="#252324" d="M 97.5,96.5 C 94.3733,97.5808 91.0399,98.2474 87.5,98.5C 87.6282,96.9102 88.2949,95.5769 89.5,94.5C 92.7608,92.9818 95.4275,93.6484 97.5,96.5 Z"/></g>
<g><path style="opacity:1" fill="#ecf1f0" d="M 84.5,73.5 C 83.6993,75.0418 83.366,76.7085 83.5,78.5C 78.4664,81.5336 74.4664,85.5336 71.5,90.5C 68.71,89.4032 65.8766,88.4032 63,87.5C 57.0155,90.1424 57.0155,92.8091 63,95.5C 65.4172,93.0915 67.5838,93.4248 69.5,96.5C 67.6667,99.5 65.8333,102.5 64,105.5C 62.5986,113.809 61.432,122.143 60.5,130.5C 57.0504,131.244 55.3838,129.91 55.5,126.5C 50.4835,126.022 45.4835,125.355 40.5,124.5C 37.6205,125.795 34.6205,126.462 31.5,126.5C 31.6741,119.776 32.3408,113.109 33.5,106.5C 34.404,105.791 34.7373,104.791 34.5,103.5C 35.8333,103.5 37.1667,103.5 38.5,103.5C 40.5,103.5 42.5,103.5 44.5,103.5C 44.6621,105.527 44.4955,107.527 44,109.5C 39.4624,110.228 37.629,112.895 38.5,117.5C 40.5,117.5 42.5,117.5 44.5,117.5C 44.5,115.833 44.5,114.167 44.5,112.5C 46.5,112.5 48.5,112.5 50.5,112.5C 49.0936,117.931 51.0936,120.265 56.5,119.5C 56.2436,117.208 56.5769,115.041 57.5,113C 55.8659,112.506 54.1992,112.34 52.5,112.5C 52.5,110.167 52.5,107.833 52.5,105.5C 55.8411,106.005 59.1745,106.172 62.5,106C 60.2482,104.913 58.9149,103.079 58.5,100.5C 53.8333,97.8333 49.1667,95.1667 44.5,92.5C 43.7836,93.311 42.9503,93.9777 42,94.5C 40.51,93.6831 39.01,92.8498 37.5,92C 40.7558,85.4839 44.7558,79.4839 49.5,74C 56.5423,71.902 60.5423,74.402 61.5,81.5C 64.4475,81.2229 67.2809,81.5562 70,82.5C 72.1667,81 74,79.1667 75.5,77C 72.0277,71.8936 68.1944,67.0603 64,62.5C 63.3333,63.1667 62.6667,63.8333 62,64.5C 60.4708,63.2713 59.3041,61.7713 58.5,60C 64.2016,54.7846 70.535,50.6179 77.5,47.5C 83.9423,49.0647 86.2756,52.898 84.5,59C 87.2966,60.2326 89.9632,61.7326 92.5,63.5C 93.1667,63.1667 93.8333,62.8333 94.5,62.5C 98.3755,66.9219 97.2089,69.9219 91,71.5C 88.5107,69.6811 86.0107,67.8478 83.5,66C 81.7111,65.4795 80.0444,65.8129 78.5,67C 77.5494,67.7175 77.3828,68.5509 78,69.5C 80.0265,71.897 82.1932,73.2303 84.5,73.5 Z"/></g>
<g><path style="opacity:1" fill="#221f20" d="M 50.5,80.5 C 55.0685,80.0826 56.5685,82.0826 55,86.5C 54.5814,87.6721 53.9147,88.6721 53,89.5C 51.082,88.4582 49.2487,87.2915 47.5,86C 48.6394,84.2196 49.6394,82.3863 50.5,80.5 Z"/></g>
<g><path style="opacity:1" fill="#252323" d="M 74.5,54.5 C 78.2253,54.7796 79.392,56.7796 78,60.5C 74.7469,64.6304 72.2469,64.1304 70.5,59C 71.3441,56.9933 72.6774,55.4933 74.5,54.5 Z"/></g>
<g><path style="opacity:1" fill="#ecf1f0" d="M 193.5,103.5 C 192.5,103.5 191.5,103.5 190.5,103.5C 188.712,100.76 187.045,97.927 185.5,95C 187.021,92.5481 189.021,92.0481 191.5,93.5C 192.415,92.6721 193.081,91.6721 193.5,90.5C 192.189,87.8646 190.522,85.5313 188.5,83.5C 187.5,84 186.5,84.5 185.5,85C 186.833,86 186.833,87 185.5,88C 184.241,88.9819 182.908,89.3152 181.5,89C 179.05,84.2163 175.55,80.383 171,77.5C 172.547,73.365 173.213,69.0317 173,64.5C 171.676,63.1198 170.343,62.7865 169,63.5C 166.565,65.4372 166.398,67.2705 168.5,69C 167.696,70.7713 166.529,72.2713 165,73.5C 161.711,71.1116 158.544,68.6116 155.5,66C 156.477,63.2393 158.477,61.906 161.5,62C 164.955,57.5891 168.289,53.0891 171.5,48.5C 169.219,46.304 169.553,44.304 172.5,42.5C 176.968,45.1367 181.302,47.97 185.5,51C 191.102,56.7636 190.769,62.0969 184.5,67C 183.207,67.49 181.873,67.6567 180.5,67.5C 180.41,69.6963 180.077,71.863 179.5,74C 179.439,75.7106 180.106,77.044 181.5,78C 189.411,77.2341 197.245,75.7341 205,73.5C 207.657,74.6602 209.49,76.6602 210.5,79.5C 205.901,86.2687 200.734,92.6021 195,98.5C 194.383,99.4491 194.549,100.282 195.5,101C 194.619,101.708 193.953,102.542 193.5,103.5 Z"/></g>
<g><path style="opacity:1" fill="#312f30" d="M 200.5,79.5 C 201.552,79.3505 202.552,79.5172 203.5,80C 201.316,82.0165 199.316,84.1831 197.5,86.5C 196.05,85.1502 195.383,83.4835 195.5,81.5C 197.553,81.5979 199.22,80.9313 200.5,79.5 Z"/></g>
<g><path style="opacity:1" fill="#252223" d="M 176.5,52.5 C 178.716,53.2026 180.549,54.5359 182,56.5C 182.5,60 181,61.5 177.5,61C 175.939,60.059 174.605,58.8924 173.5,57.5C 174.763,55.9713 175.763,54.3046 176.5,52.5 Z"/></g>
<g><path style="opacity:1" fill="#eaefee" d="M 138.5,31.5 C 144.192,32.8398 149.858,34.3398 155.5,36C 161.701,40.823 162.034,45.9897 156.5,51.5C 158.672,56.838 157.339,61.0047 152.5,64C 145.711,64.2768 139.045,63.4435 132.5,61.5C 132.5,59.5 132.5,57.5 132.5,55.5C 133.833,55.5 135.167,55.5 136.5,55.5C 137.519,49.426 138.852,43.426 140.5,37.5C 139.5,37.5 138.5,37.5 137.5,37.5C 137.833,35.5 138.167,33.5 138.5,31.5 Z"/></g>
<g><path style="opacity:1" fill="#201e1f" d="M 144.5,51.5 C 149.554,51.3639 151.22,53.5305 149.5,58C 147.527,58.4955 145.527,58.6621 143.5,58.5C 143.448,56.0971 143.781,53.7638 144.5,51.5 Z"/></g>
<g><path style="opacity:1" fill="#2b292a" d="M 146.5,39.5 C 148.564,39.687 150.564,40.187 152.5,41C 154.323,45.8458 152.656,47.5124 147.5,46C 146.577,43.9592 146.244,41.7925 146.5,39.5 Z"/></g>
<g><path style="opacity:1" fill="#e9eded" d="M 113.5,31.5 C 116.121,31.4772 117.455,32.8105 117.5,35.5C 114.121,40.1115 111.788,45.2782 110.5,51C 110.781,53.2916 111.448,55.4583 112.5,57.5C 115.062,56.3605 116.396,57.3605 116.5,60.5C 116.182,61.6473 115.516,62.4806 114.5,63C 110.793,63.7373 107.127,64.5707 103.5,65.5C 103.643,63.7376 103.309,62.0709 102.5,60.5C 103.325,59.6143 104.325,59.281 105.5,59.5C 103.127,51.1265 97.7933,45.7932 89.5,43.5C 89.5792,42.0695 89.2458,40.7362 88.5,39.5C 92.1471,37.673 95.9804,36.3397 100,35.5C 102.9,37.5575 103.066,39.7241 100.5,42C 103.955,46.9422 106.289,46.4422 107.5,40.5C 106.675,39.6143 105.675,39.281 104.5,39.5C 103.948,37.6693 103.948,36.0026 104.5,34.5C 107.662,33.635 110.662,32.635 113.5,31.5 Z"/></g>
<g><path style="opacity:1" fill="#235b5e" d="M 139.5,16.5 C 139.833,16.5 140.167,16.5 140.5,16.5C 145.956,17.7439 151.289,19.4106 156.5,21.5C 138.921,17.8864 121.254,17.5531 103.5,20.5C 107.817,18.4206 112.484,17.254 117.5,17C 124.826,16.5003 132.159,16.3337 139.5,16.5 Z"/></g>
<g><path style="opacity:1" fill="#2d7f82" d="M -0.5,139.5 C 1.15364,159.638 6.98698,178.638 17,196.5C 50.7619,247.279 97.9285,267.279 158.5,256.5C 156.123,257.887 153.457,258.721 150.5,259C 130.012,261.41 109.679,260.577 89.5,256.5C 80.6681,252.764 71.6681,248.931 62.5,245C 59.1223,241.985 55.4556,239.485 51.5,237.5C 50.8333,237.5 50.1667,237.5 49.5,237.5C 41.3401,229.2 33.1734,220.866 25,212.5C 16.4096,199.636 9.24294,186.302 3.5,172.5C 2.7953,166.875 1.46196,161.542 -0.5,156.5C -0.5,150.833 -0.5,145.167 -0.5,139.5 Z"/></g>
<g><path style="opacity:1" fill="#e8d9cb" d="M 83.5,190.5 C 83.8333,190.5 84.1667,190.5 84.5,190.5C 89.4335,193.978 94.4335,197.478 99.5,201C 98.4404,202.298 97.2737,203.465 96,204.5C 93.5886,203.013 91.0886,202.179 88.5,202C 85.03,207.795 81.1967,213.295 77,218.5C 75.3745,217.711 73.8745,216.711 72.5,215.5C 76.5482,209.903 80.2149,204.07 83.5,198C 81.7913,195.957 79.7913,194.123 77.5,192.5C 78.7382,188.5 80.7382,187.833 83.5,190.5 Z"/></g>
<g><path style="opacity:1" fill="#e9dbcd" d="M 172.5,189.5 C 173.496,189.414 174.329,189.748 175,190.5C 179.5,197.667 184,204.833 188.5,212C 187.271,213.529 185.771,214.696 184,215.5C 181.92,213.007 180.086,210.341 178.5,207.5C 177.998,206.479 177.332,206.312 176.5,207C 174.359,208.308 172.359,209.808 170.5,211.5C 172.42,214.339 174.087,217.339 175.5,220.5C 174.086,221.624 172.586,222.624 171,223.5C 165.787,216.238 160.953,208.738 156.5,201C 157.697,199.48 159.197,198.313 161,197.5C 163.248,200.328 165.248,203.328 167,206.5C 169.414,204.709 171.914,203.043 174.5,201.5C 172.701,198.733 171.034,195.899 169.5,193C 170.544,191.826 171.544,190.659 172.5,189.5 Z"/></g>
<g><path style="opacity:1" fill="#2e8185" d="M 234.5,176.5 C 227.319,195.335 215.653,210.668 199.5,222.5C 204.793,215.373 210.959,209.04 218,203.5C 220.004,198.15 223.004,193.484 227,189.5C 228.768,185.914 230.268,182.247 231.5,178.5C 231.5,178.167 231.5,177.833 231.5,177.5C 232.391,176.89 233.391,176.557 234.5,176.5 Z"/></g>
<g><path style="opacity:1" fill="#e4d6c8" d="M 103.5,202.5 C 109.858,203.372 116.191,204.372 122.5,205.5C 122.167,207.5 121.833,209.5 121.5,211.5C 117.193,210.673 112.86,210.007 108.5,209.5C 108.579,210.93 108.246,212.264 107.5,213.5C 110.391,214.678 113.391,215.345 116.5,215.5C 116.5,217.5 116.5,219.5 116.5,221.5C 113.447,221.089 110.447,220.423 107.5,219.5C 106.232,221.304 105.565,223.304 105.5,225.5C 109.306,225.412 112.972,226.079 116.5,227.5C 117.747,229.006 117.747,230.506 116.5,232C 110.451,231.759 104.451,230.925 98.5,229.5C 99.7814,220.427 101.448,211.427 103.5,202.5 Z"/></g>
<g><path style="opacity:1" fill="#225557" d="M 245.5,188.5 C 244.173,194.979 241.006,200.312 236,204.5C 224.399,222.94 208.899,236.94 189.5,246.5C 190.211,244.97 191.211,243.637 192.5,242.5C 204.496,236.697 214.996,228.697 224,218.5C 231.434,208.609 238.6,198.609 245.5,188.5 Z"/></g>
<g><path style="opacity:1" fill="#e6d8ca" d="M 136.5,204.5 C 143.549,202.868 148.882,205.035 152.5,211C 151.663,212.587 150.33,213.42 148.5,213.5C 145.483,209.662 141.817,208.829 137.5,211C 134.924,215.401 134.924,219.901 137.5,224.5C 139.867,226.395 142.534,226.895 145.5,226C 147.607,224.736 148.607,222.903 148.5,220.5C 150.5,220.5 152.5,220.5 154.5,220.5C 153.973,228.196 149.806,232.196 142,232.5C 133.296,231.122 128.796,225.956 128.5,217C 129.042,211.403 131.709,207.236 136.5,204.5 Z"/></g>
<g><path style="opacity:1" fill="#214c4e" d="M 231.5,178.5 C 230.268,182.247 228.768,185.914 227,189.5C 223.004,193.484 220.004,198.15 218,203.5C 210.959,209.04 204.793,215.373 199.5,222.5C 195.101,226.033 190.101,228.533 184.5,230C 182.183,231.32 180.183,232.986 178.5,235C 168.926,238.969 159.259,242.469 149.5,245.5C 138.654,245.828 127.987,245.494 117.5,244.5C 124.687,244.825 131.687,244.491 138.5,243.5C 153.455,243.666 166.788,239.332 178.5,230.5C 181.016,230.245 183.35,229.411 185.5,228C 190.167,225 194.833,222 199.5,219C 211.848,208.827 221.181,196.327 227.5,181.5C 228.833,180.5 230.167,179.5 231.5,178.5 Z"/></g>
<g><path style="opacity:1" fill="#1e3738" d="M 3.5,172.5 C 9.24294,186.302 16.4096,199.636 25,212.5C 33.1734,220.866 41.3401,229.2 49.5,237.5C 48.1266,237.657 46.7932,237.49 45.5,237C 31.9715,226.324 21.4715,213.491 14,198.5C 8.81987,190.448 5.31987,181.782 3.5,172.5 Z"/></g>
<g><path style="opacity:1" fill="#2f8589" d="M 251.5,166.5 C 250.375,174.149 248.375,181.482 245.5,188.5C 238.6,198.609 231.434,208.609 224,218.5C 214.996,228.697 204.496,236.697 192.5,242.5C 221.279,224.29 240.946,198.957 251.5,166.5 Z"/></g>
<g><path style="opacity:1" fill="#2f8487" d="M 199.5,222.5 C 185.186,234.986 168.519,242.653 149.5,245.5C 159.259,242.469 168.926,238.969 178.5,235C 180.183,232.986 182.183,231.32 184.5,230C 190.101,228.533 195.101,226.033 199.5,222.5 Z"/></g>
<g><path style="opacity:1" fill="#1e3c3d" d="M 57.5,220.5 C 58.8734,220.343 60.2068,220.51 61.5,221C 69.0076,228.688 78.0076,233.522 88.5,235.5C 91.1411,237.453 94.1411,238.953 97.5,240C 111.001,242.858 124.668,244.025 138.5,243.5C 131.687,244.491 124.687,244.825 117.5,244.5C 112.126,244.477 106.793,243.977 101.5,243C 94.3391,240.057 87.0057,237.724 79.5,236C 71.2232,232.041 63.8899,226.874 57.5,220.5 Z"/></g>
<g><path style="opacity:1" fill="#1b2829" d="M 178.5,230.5 C 166.788,239.332 153.455,243.666 138.5,243.5C 124.668,244.025 111.001,242.858 97.5,240C 94.1411,238.953 91.1411,237.453 88.5,235.5C 119.232,245.954 149.232,244.287 178.5,230.5 Z"/></g>
<g><path style="opacity:1" fill="#1e3435" d="M 248.5,187.5 C 244.784,195.931 240.284,203.931 235,211.5C 225.799,220.701 216.633,229.867 207.5,239C 188.632,252.597 167.632,260.93 144.5,264C 111.34,268.209 81.3402,260.875 54.5,242C 53.6138,240.385 52.6138,238.885 51.5,237.5C 55.4556,239.485 59.1223,241.985 62.5,245C 71.6681,248.931 80.6681,252.764 89.5,256.5C 90.347,257.966 91.6803,258.8 93.5,259C 116.13,262.137 138.797,262.137 161.5,259C 168.858,256.315 175.858,253.149 182.5,249.5C 184.713,248.227 187.046,247.227 189.5,246.5C 208.899,236.94 224.399,222.94 236,204.5C 241.006,200.312 244.173,194.979 245.5,188.5C 246.609,188.443 247.609,188.11 248.5,187.5 Z"/></g>
<g><path style="opacity:1" fill="#2f8488" d="M 192.5,242.5 C 191.211,243.637 190.211,244.97 189.5,246.5C 187.046,247.227 184.713,248.227 182.5,249.5C 174.725,252.648 166.725,254.981 158.5,256.5C 170.183,252.824 181.516,248.157 192.5,242.5 Z"/></g>
<g><path style="opacity:1" fill="#245d60" d="M 182.5,249.5 C 175.858,253.149 168.858,256.315 161.5,259C 138.797,262.137 116.13,262.137 93.5,259C 91.6803,258.8 90.347,257.966 89.5,256.5C 109.679,260.577 130.012,261.41 150.5,259C 153.457,258.721 156.123,257.887 158.5,256.5C 166.725,254.981 174.725,252.648 182.5,249.5 Z"/></g>
</svg>
